<svg width="20" height="21" viewBox="0 0 20 21" fill="none" xmlns="http://www.w3.org/2000/svg">
    <rect y="0.841232" width="20" height="20" rx="10" fill="url(#paint0_linear_530_104)"/>
    <path d="M9.88636 15.1818C9.04545 15.1818 8.32008 14.9962 7.71023 14.625C7.10417 14.25 6.63636 13.7273 6.30682 13.0568C5.98106 12.3826 5.81818 11.5985 5.81818 10.7045C5.81818 9.81061 5.98106 9.02273 6.30682 8.34091C6.63636 7.6553 7.0947 7.12121 7.68182 6.73864C8.27273 6.35227 8.96212 6.15909 9.75 6.15909C10.2045 6.15909 10.6534 6.23485 11.0966 6.38636C11.5398 6.53788 11.9432 6.78409 12.3068 7.125C12.6705 7.46212 12.9602 7.90909 13.1761 8.46591C13.392 9.02273 13.5 9.70833 13.5 10.5227V11.0909H6.77273V9.93182H12.1364C12.1364 9.43939 12.0379 9 11.8409 8.61364C11.6477 8.22727 11.3712 7.92235 11.0114 7.69886C10.6553 7.47538 10.2348 7.36364 9.75 7.36364C9.21591 7.36364 8.75379 7.49621 8.36364 7.76136C7.97727 8.02273 7.67992 8.36364 7.47159 8.78409C7.26326 9.20455 7.15909 9.6553 7.15909 10.1364V10.9091C7.15909 11.5682 7.27273 12.1269 7.5 12.5852C7.73106 13.0398 8.05114 13.3864 8.46023 13.625C8.86932 13.8598 9.3447 13.9773 9.88636 13.9773C10.2386 13.9773 10.5568 13.928 10.8409 13.8295C11.1288 13.7273 11.3769 13.5758 11.5852 13.375C11.7936 13.1705 11.9545 12.9167 12.0682 12.6136L13.3636 12.9773C13.2273 13.4167 12.9981 13.803 12.6761 14.1364C12.3542 14.4659 11.9564 14.7235 11.483 14.9091C11.0095 15.0909 10.4773 15.1818 9.88636 15.1818Z" fill="white"/>
    <defs>
        <linearGradient id="paint0_linear_530_104" x1="10" y1="0.841232" x2="10" y2="20.8412" gradientUnits="userSpaceOnUse">
            <stop stop-color="#D9D9D9"/>
            <stop offset="1" stop-color="#737373"/>
        </linearGradient>
    </defs>
</svg>
