<svg width="20" height="20" viewBox="0 0 20 20" fill="none" xmlns="http://www.w3.org/2000/svg">
    <rect width="20" height="20" rx="10" fill="url(#paint0_linear_1_1907)"/>
    <path d="M9.32884 5.43148H10.6697V14.7951C10.6697 15.333 10.5769 15.7989 10.3913 16.1928C10.2095 16.5868 9.933 16.8917 9.56179 17.1076C9.19437 17.3235 8.73035 17.4315 8.16974 17.4315C8.12429 17.4315 8.07884 17.4315 8.03338 17.4315C7.98793 17.4315 7.94247 17.4315 7.89702 17.4315V16.1815C7.94247 16.1815 7.98414 16.1815 8.02202 16.1815C8.0599 16.1815 8.10156 16.1815 8.14702 16.1815C8.55611 16.1815 8.85535 16.0603 9.04474 15.8178C9.23414 15.5792 9.32884 15.2383 9.32884 14.7951V5.43148ZM9.98793 3.97693C9.72656 3.97693 9.50118 3.88792 9.31179 3.70989C9.12618 3.53186 9.03338 3.31784 9.03338 3.06784C9.03338 2.81784 9.12618 2.60383 9.31179 2.4258C9.50118 2.24777 9.72656 2.15875 9.98793 2.15875C10.2493 2.15875 10.4728 2.24777 10.6584 2.4258C10.8478 2.60383 10.9425 2.81784 10.9425 3.06784C10.9425 3.31784 10.8478 3.53186 10.6584 3.70989C10.4728 3.88792 10.2493 3.97693 9.98793 3.97693Z" fill="white"/>
    <defs>
        <linearGradient id="paint0_linear_1_1907" x1="10" y1="0" x2="10" y2="20" gradientUnits="userSpaceOnUse">
            <stop stop-color="#D9D9D9"/>
            <stop offset="1" stop-color="#737373"/>
        </linearGradient>
    </defs>
</svg>
